<svg id="visual" viewBox="0 0 960 540" width="960" height="540" xmlns="http://www.w3.org/2000/svg" xmlns:xlink="http://www.w3.org/1999/xlink" version="1.1"><path d="M0 163L137 179L274 125L411 93L549 174L686 98L823 163L960 163L960 0L823 0L686 0L549 0L411 0L274 0L137 0L0 0Z" fill="#00cc8e"></path><path d="M0 266L137 314L274 206L411 201L549 282L686 212L823 276L960 255L960 161L823 161L686 96L549 172L411 91L274 123L137 177L0 161Z" fill="#009e80"></path><path d="M0 401L137 433L274 428L411 384L549 417L686 401L823 374L960 406L960 253L823 274L686 210L549 280L411 199L274 204L137 312L0 264Z" fill="#038373"></path><path d="M0 460L137 498L274 498L411 482L549 471L686 482L823 460L960 482L960 404L823 372L686 399L549 415L411 382L274 426L137 431L0 399Z" fill="#009e80"></path><path d="M0 541L137 541L274 541L411 541L549 541L686 541L823 541L960 541L960 480L823 458L686 480L549 469L411 480L274 496L137 496L0 458Z" fill="#00cc8e"></path></svg>