<svg id="visual" viewBox="0 0 960 540" width="960" height="540" xmlns="http://www.w3.org/2000/svg" xmlns:xlink="http://www.w3.org/1999/xlink" version="1.1"><path d="M0 55L137 93L274 87L411 77L549 93L686 71L823 77L960 82L960 0L823 0L686 0L549 0L411 0L274 0L137 0L0 0Z" fill="#038373"></path><path d="M0 158L137 212L274 158L411 158L549 195L686 141L823 168L960 163L960 80L823 75L686 69L549 91L411 75L274 85L137 91L0 53Z" fill="#00957c"></path><path d="M0 363L137 336L274 276L411 341L549 368L686 303L823 309L960 320L960 161L823 166L686 139L549 193L411 156L274 156L137 210L0 156Z" fill="#00a784"></path><path d="M0 498L137 498L274 498L411 460L549 492L686 460L823 471L960 460L960 318L823 307L686 301L549 366L411 339L274 274L137 334L0 361Z" fill="#00b98a"></path><path d="M0 541L137 541L274 541L411 541L549 541L686 541L823 541L960 541L960 458L823 469L686 458L549 490L411 458L274 496L137 496L0 496Z" fill="#00cc8e"></path></svg>