<svg id="visual" viewBox="0 0 900 600" width="900" height="600" xmlns="http://www.w3.org/2000/svg" xmlns:xlink="http://www.w3.org/1999/xlink" version="1.1"><path d="M0 187L82 91L164 121L245 163L327 241L409 139L491 181L573 199L655 139L736 139L818 235L900 109L900 0L818 0L736 0L655 0L573 0L491 0L409 0L327 0L245 0L164 0L82 0L0 0Z" fill="#00cc8e"></path><path d="M0 259L82 331L164 397L245 301L327 349L409 355L491 415L573 331L655 379L736 385L818 313L900 301L900 107L818 233L736 137L655 137L573 197L491 179L409 137L327 239L245 161L164 119L82 89L0 185Z" fill="#00b98a"></path><path d="M0 391L82 469L164 499L245 391L327 409L409 415L491 487L573 421L655 487L736 487L818 421L900 427L900 299L818 311L736 383L655 377L573 329L491 413L409 353L327 347L245 299L164 395L82 329L0 257Z" fill="#00a784"></path><path d="M0 499L82 565L164 547L245 499L327 505L409 505L491 553L573 517L655 529L736 547L818 529L900 547L900 425L818 419L736 485L655 485L573 419L491 485L409 413L327 407L245 389L164 497L82 467L0 389Z" fill="#00957c"></path><path d="M0 601L82 601L164 601L245 601L327 601L409 601L491 601L573 601L655 601L736 601L818 601L900 601L900 545L818 527L736 545L655 527L573 515L491 551L409 503L327 503L245 497L164 545L82 563L0 497Z" fill="#038373"></path></svg>