<svg id="visual" viewBox="0 0 960 540" width="960" height="540" xmlns="http://www.w3.org/2000/svg" xmlns:xlink="http://www.w3.org/1999/xlink" version="1.1"><path d="M0 168L87 82L175 109L262 147L349 217L436 125L524 163L611 179L698 125L785 125L873 212L960 98L960 0L873 0L785 0L698 0L611 0L524 0L436 0L349 0L262 0L175 0L87 0L0 0Z" fill="#00cc8e"></path><path d="M0 233L87 298L175 357L262 271L349 314L436 320L524 374L611 298L698 341L785 347L873 282L960 271L960 96L873 210L785 123L698 123L611 177L524 161L436 123L349 215L262 145L175 107L87 80L0 166Z" fill="#00b98a"></path><path d="M0 352L87 422L175 449L262 352L349 368L436 374L524 438L611 379L698 438L785 438L873 379L960 384L960 269L873 280L785 345L698 339L611 296L524 372L436 318L349 312L262 269L175 355L87 296L0 231Z" fill="#00a784"></path><path d="M0 449L87 509L175 492L262 449L349 455L436 455L524 498L611 465L698 476L785 492L873 476L960 492L960 382L873 377L785 436L698 436L611 377L524 436L436 372L349 366L262 350L175 447L87 420L0 350Z" fill="#00957c"></path><path d="M0 541L87 541L175 541L262 541L349 541L436 541L524 541L611 541L698 541L785 541L873 541L960 541L960 490L873 474L785 490L698 474L611 463L524 496L436 453L349 453L262 447L175 490L87 507L0 447Z" fill="#038373"></path></svg>